<svg width="235" height="235" viewBox="0 0 235 235" fill="none" xmlns="http://www.w3.org/2000/svg">
<g filter="url(#filter0_d)">
<path d="M191.751 82.0941C191.635 82.3465 191.63 82.6354 191.736 82.8918C191.842 83.1483 192.05 83.3492 192.31 83.4465C198.45 85.7459 203.741 89.8654 207.476 95.254C211.211 100.643 213.212 107.043 213.21 113.6L214.21 113.6L213.21 113.601C213.214 120.159 211.214 126.561 207.479 131.952C203.744 137.343 198.451 141.464 192.31 143.764C192.05 143.861 191.842 144.062 191.736 144.318C191.63 144.575 191.635 144.864 191.751 145.116C194.482 151.088 195.322 157.753 194.157 164.216C192.993 170.68 189.88 176.632 185.236 181.276C180.593 185.92 174.64 189.033 168.177 190.197C161.713 191.362 155.049 190.522 149.076 187.791C148.824 187.675 148.535 187.67 148.279 187.776C148.022 187.882 147.821 188.089 147.724 188.349C145.422 194.488 141.3 199.778 135.911 203.512C130.522 207.247 124.122 209.248 117.565 209.248C111.009 209.248 104.608 207.247 99.2192 203.512C93.8301 199.778 89.709 194.488 87.4066 188.349C87.3092 188.089 87.1082 187.882 86.8519 187.776C86.5955 187.67 86.3066 187.675 86.0544 187.791C80.0819 190.522 73.4171 191.362 66.9539 190.197C60.4906 189.033 54.5379 185.92 49.8941 181.276C45.2503 176.632 42.1375 170.68 40.9731 164.216C39.8087 157.753 40.6484 151.088 43.3797 145.116C43.495 144.864 43.5004 144.575 43.3946 144.318C43.2887 144.062 43.0811 143.861 42.8214 143.764C36.6824 141.461 31.3922 137.34 27.6578 131.951C23.9233 126.562 21.9224 120.162 21.9224 113.605C21.9224 107.048 23.9233 100.648 27.6578 95.2589C31.3922 89.8698 36.6824 85.7487 42.8214 83.4463C43.0811 83.3489 43.2887 83.148 43.3946 82.8916C43.5004 82.6352 43.495 82.3464 43.3797 82.0941C40.6484 76.1217 39.8087 69.4569 40.9731 62.9936C42.1375 56.5304 45.2503 50.5776 49.8941 45.9338C54.5379 41.29 60.4906 38.1772 66.9539 37.0128C73.4171 35.8484 80.0819 36.6882 86.0544 39.4194C86.3066 39.5348 86.5955 39.5402 86.8519 39.4343C87.1082 39.3285 87.3092 39.1209 87.4066 38.8612C89.709 32.7222 93.8301 27.432 99.2192 23.6975C104.608 19.963 111.009 17.9621 117.565 17.9621C124.122 17.9621 130.522 19.963 135.911 23.6975C141.3 27.432 145.422 32.7222 147.724 38.8612C147.821 39.1209 148.022 39.3285 148.279 39.4343C148.535 39.5402 148.824 39.5348 149.076 39.4194C155.049 36.6882 161.713 35.8484 168.177 37.0128C174.64 38.1772 180.593 41.29 185.236 45.9338C189.88 50.5776 192.993 56.5304 194.157 62.9936C195.322 69.4569 194.482 76.1217 191.751 82.0941Z" fill="url(#paint0_linear)" stroke="#DA71A1" stroke-width="2" stroke-linejoin="round"/>
<path d="M92.3901 50.44C93.0805 50.3741 93.7193 50.046 94.1751 49.5232C94.6309 49.0005 94.8689 48.3229 94.8401 47.63L96.6401 47.22L100.54 64.22L97.8601 64.83L94.8601 51.83L92.7901 52.31L92.3901 50.44Z" fill="white"/>
<path d="M104.88 50.05C104.65 47.27 105.99 45.56 108.67 45.34C111.35 45.12 112.95 46.59 113.18 49.34L113.93 58.39C114.16 61.17 112.82 62.88 110.14 63.1C107.46 63.32 105.86 61.85 105.63 59.1L104.88 50.05ZM108.38 59.05C108.48 60.29 109.06 60.72 109.93 60.65C110.8 60.58 111.31 60.06 111.21 58.81L110.43 49.42C110.33 48.18 109.75 47.75 108.88 47.82C108.01 47.89 107.5 48.41 107.6 49.65L108.38 59.05Z" fill="white"/>
<path d="M119 49.3C119.16 46.51 120.72 45 123.41 45.15C126.1 45.3 127.48 46.99 127.32 49.77L126.8 58.84C126.64 61.63 125.08 63.13 122.39 62.98C119.7 62.83 118.32 61.15 118.48 58.36L119 49.3ZM121.21 58.69C121.14 59.94 121.66 60.44 122.53 60.49C123.4 60.54 123.98 60.1 124.05 58.85L124.59 49.44C124.66 48.2 124.14 47.69 123.27 47.64C122.4 47.59 121.82 48.04 121.75 49.28L121.21 58.69Z" fill="white"/>
<path d="M133.84 49C134.25 47.25 135.38 46.49 137.05 46.89C138.72 47.29 139.4 48.47 138.99 50.21L137.67 55.8C137.636 56.1684 137.519 56.5244 137.329 56.8415C137.138 57.1586 136.878 57.4286 136.569 57.6314C136.259 57.8341 135.908 57.9645 135.541 58.0128C135.174 58.061 134.801 58.0259 134.45 57.91C132.78 57.51 132.11 56.33 132.52 54.58L133.84 49ZM143.72 48.59L145.3 48.96L134.6 64.32L133 64L143.72 48.59ZM134.19 55.1C134.02 55.86 134.26 56.25 134.82 56.38C135.38 56.51 135.76 56.27 135.94 55.52L137.32 49.69C137.49 48.94 137.23 48.54 136.69 48.42C136.15 48.3 135.75 48.53 135.57 49.28L134.19 55.1ZM140.8 57.2C141.21 55.45 142.33 54.69 144.01 55.09C145.69 55.49 146.35 56.67 145.94 58.41L144.62 63.99C144.21 65.74 143.08 66.5 141.41 66.11C139.74 65.72 139.07 64.53 139.48 62.78L140.8 57.2ZM141.15 63.3C140.97 64.06 141.21 64.44 141.77 64.58C142.33 64.72 142.77 64.47 142.9 63.72L144.27 57.89C144.45 57.14 144.18 56.74 143.65 56.62C143.12 56.5 142.65 56.73 142.52 57.48L141.15 63.3Z" fill="white"/>
<mask id="path-6-outside-1" maskUnits="userSpaceOnUse" x="52.0786" y="83.9783" width="132" height="58" fill="black">
<rect fill="white" x="52.0786" y="83.9783" width="132" height="58"/>
<path d="M85.8804 105.9C83.1718 105.819 80.4686 106.188 77.8804 106.99L76.6904 107.35C77.3104 112.98 77.9904 118.6 78.8904 124.17C79.1704 125.92 79.4704 127.66 79.8304 129.39C79.9904 130.18 80.1604 130.96 80.3504 131.74C80.4904 132.35 80.6904 133.14 80.8304 133.59C81.1236 134.651 81.5153 135.682 82.0004 136.67C82.0004 136.67 82.1004 136.86 82.1104 136.89C82.1204 136.92 82.1804 137.01 82.2204 137.06C82.3088 137.214 82.4091 137.361 82.5204 137.5C82.5704 137.57 82.7904 137.8 82.5704 137.58C82.6161 137.638 82.67 137.688 82.7304 137.73L82.8904 137.86C83.8904 138.41 83.3704 140.49 82.3404 139.94C80.5204 138.94 79.7304 136.07 79.1304 133.94C78.2694 130.649 77.6016 127.309 77.1304 123.94C76.4704 119.73 75.9404 115.49 75.4404 111.24C75.3104 110.13 75.1804 109.01 75.0604 107.89C69.4755 109.548 64.1701 112.032 59.3204 115.26C59.7104 118.4 59.9304 119.78 60.4404 122.9C60.6321 124.592 60.9667 126.265 61.4404 127.9C61.4404 128.01 61.5404 128.24 61.6204 128.49C61.7004 128.74 61.7504 128.92 61.8304 129.13C61.9585 129.529 62.1122 129.92 62.2904 130.3L62.4204 130.58C62.4845 130.697 62.5546 130.81 62.6304 130.92L62.7604 131.09L62.9904 131.26C63.1889 131.453 63.321 131.705 63.3677 131.978C63.4145 132.251 63.3734 132.532 63.2504 132.78C63.2035 132.891 63.1317 132.991 63.0405 133.07C62.9492 133.149 62.841 133.207 62.7241 133.238C62.6072 133.269 62.4848 133.272 62.3662 133.248C62.2477 133.224 62.1362 133.174 62.0404 133.1C60.6804 132.24 60.0404 129.68 59.6504 128.02C59.1746 126.293 58.8402 124.531 58.6504 122.75C58.2204 120.03 58.0604 119.05 57.7104 116.32C56.5704 117.08 55.4404 117.87 54.3204 118.69C53.3204 119.4 52.5604 117.43 53.5204 116.69C54.8104 115.76 56.1104 114.85 57.4304 113.99C56.5804 107.12 56.3704 104.63 55.4304 97.77C55.2504 96.38 56.9504 95.94 57.1304 97.33C57.6004 100.9 57.5204 100.08 57.9304 103.67C58.2804 106.76 58.6304 109.85 59.0004 112.94L60.8904 111.78C65.3404 109.13 66.8904 108.67 71.6004 106.84C72.6604 106.44 73.7204 106.04 74.7904 105.67C74.0904 99.2 73.4504 92.67 72.6304 86.28C72.4604 84.88 74.1604 84.43 74.3304 85.83C74.8804 90.15 75.3304 94.49 75.8004 98.83C76.0204 100.93 76.2437 103.03 76.4704 105.13C79.5383 104.098 82.7648 103.617 86.0004 103.71C87.1104 103.76 87.0004 106 85.8804 105.9Z"/>
<path d="M100.32 115.55C99.8348 117.561 99.1654 119.522 98.3203 121.41C97.1603 124.06 94.6703 128.99 92.0203 125.57C91.335 124.546 90.8466 123.403 90.5803 122.2C90.1603 120.75 89.7603 119.29 89.3903 117.82L89.0603 116.46C88.9803 117.08 88.8903 117.7 88.7703 118.32C88.3203 120.7 87.4703 124.01 85.4803 124.99C83.2603 126.08 81.7503 123.3 81.3103 120.92C80.7762 118.321 81.2863 115.616 82.7303 113.39C84.0003 111.68 86.1403 111.22 87.6103 112.72C87.6103 111.43 87.6103 110.14 87.6103 108.88C87.5843 108.76 87.5841 108.635 87.6097 108.515C87.6353 108.395 87.6862 108.281 87.759 108.182C87.8317 108.082 87.9247 108 88.0317 107.939C88.1388 107.878 88.2575 107.841 88.3801 107.83C88.5026 107.818 88.6262 107.833 88.7426 107.873C88.859 107.913 88.9656 107.977 89.0555 108.061C89.1453 108.145 89.2162 108.248 89.2636 108.361C89.311 108.475 89.3337 108.597 89.3303 108.72C89.8203 111.65 90.4103 114.53 91.1203 117.38C91.4303 118.62 91.7603 119.85 92.1203 121.06C92.3109 122.124 92.7011 123.142 93.2703 124.06C93.7503 124.65 94.4503 124.59 95.2703 123.35C96.8977 120.747 98.0616 117.881 98.7103 114.88C99.0003 113.49 100.64 114.2 100.32 115.55ZM87.5003 114.81C87.3418 114.876 87.1649 114.883 87.0018 114.829C86.8386 114.776 86.6998 114.666 86.6103 114.52C85.4403 113 83.8203 114.78 83.3103 116.2C82.6643 118.063 82.7069 120.096 83.4303 121.93C83.7003 122.55 84.1703 123.23 84.7903 122.93C85.4103 122.63 85.8903 121.7 86.1803 120.93C86.914 118.965 87.3586 116.903 87.5003 114.81Z"/>
<path d="M109.63 114.22C109.38 115.96 108.63 117.84 107.06 118.07C105.49 118.3 104.72 116.8 104.13 115.34C103.61 114.08 105.13 113.08 105.67 114.34C105.86 114.82 106.11 115.57 106.53 115.82C106.95 116.07 107.46 115.51 107.65 115.02C108.138 113.421 108.204 111.722 107.84 110.09C107.63 108.96 107.21 107.33 106.33 106.73C105.45 106.13 104.72 108 104.42 108.81C103.475 111.782 102.996 114.882 103 118C102.929 124.458 103.634 130.901 105.1 137.19C105.161 137.451 105.127 137.725 105.004 137.963C104.881 138.201 104.678 138.388 104.43 138.49C103.93 138.62 103.54 138.19 103.43 137.63C101.008 128.265 99.3362 118.721 98.4302 109.09C98.3032 108.873 98.2473 108.621 98.2701 108.37V107.72C98.3401 106.52 99.8702 106.31 99.9902 107.57C100.31 111.083 100.72 114.58 101.22 118.06C101.28 116.078 101.461 114.101 101.76 112.14C102.18 109.42 103.53 103.14 106.7 104.52C108 105.1 108.7 106.83 109.19 108.36C109.757 110.259 109.907 112.258 109.63 114.22Z"/>
<path d="M122.6 110.64C122.35 112.38 121.6 114.26 120.03 114.49C118.46 114.72 117.68 113.22 117.09 111.76C116.58 110.5 118.09 109.5 118.64 110.76C118.789 111.32 119.082 111.83 119.49 112.24C119.97 112.54 120.43 111.93 120.62 111.44C121.108 109.841 121.174 108.142 120.81 106.51C120.6 105.38 120.18 103.75 119.3 103.15C118.42 102.55 117.68 104.43 117.39 105.23C116.456 108.217 115.987 111.33 116 114.46C115.939 120.917 116.644 127.359 118.1 133.65C118.161 133.908 118.128 134.18 118.007 134.416C117.886 134.652 117.685 134.838 117.44 134.94C116.94 135.07 116.55 134.65 116.44 134.09C114.018 124.725 112.347 115.181 111.44 105.55C111.313 105.333 111.258 105.081 111.28 104.83V104.18C111.35 102.98 112.88 102.77 113 104.03C113.32 107.543 113.73 111.04 114.23 114.52C114.285 112.537 114.465 110.56 114.77 108.6C115.19 105.88 116.54 99.6 119.7 100.98C121.01 101.55 121.76 103.29 122.2 104.82C122.743 106.71 122.88 108.694 122.6 110.64Z"/>
<path d="M123.37 99.18C123.166 99.0019 123.032 98.7576 122.99 98.49C122.995 98.4669 122.995 98.4432 122.99 98.42C122.949 98.1408 122.99 97.8555 123.11 97.6C123.165 97.4879 123.241 97.3882 123.336 97.3073C123.431 97.2264 123.541 97.166 123.66 97.13C123.77 97.0903 123.891 97.0903 124 97.13C124.116 97.1486 124.224 97.2008 124.31 97.28C124.516 97.4606 124.651 97.7089 124.69 97.98V98.05C124.737 98.3292 124.695 98.616 124.57 98.87C124.516 98.9821 124.439 99.0818 124.345 99.1627C124.25 99.2436 124.14 99.304 124.02 99.34C123.911 99.3845 123.789 99.3845 123.68 99.34C123.561 99.3256 123.451 99.2688 123.37 99.18ZM128 118.55C127.526 118.315 127.105 117.987 126.761 117.585C126.417 117.182 126.159 116.715 126 116.21C125.469 114.899 125.067 113.539 124.8 112.15C124.24 109.62 123.93 107.04 123.52 104.47C123.516 104.444 123.516 104.416 123.52 104.39C123.52 104.3 123.52 104.21 123.52 104.12C123.31 102.73 124.99 102.29 125.22 103.68C125.63 106.13 125.92 108.61 126.42 111.04C126.649 112.316 126.983 113.57 127.42 114.79C127.569 115.213 127.763 115.619 128 116C128.24 116.35 128.29 116.4 128.56 116.48C129.65 116.82 129.1 118.9 128 118.55Z"/>
<path d="M147.67 103.13C146.52 105.65 144.67 107.85 142.22 106.9C141.355 106.518 140.547 106.017 139.82 105.41C139.23 104.881 138.59 104.408 137.91 104C137.26 103.68 136.91 104.3 136.65 105C135.21 108.11 134.65 111.77 133.65 115.09C133.24 116.41 132.34 118.87 130.89 117.63C130.25 117.08 130.16 115.96 130.01 115.08C129.86 114.2 129.7 113.24 129.57 112.31C129.011 108.207 128.737 104.071 128.75 99.93C128.729 99.7649 128.755 99.597 128.826 99.4464C128.897 99.2958 129.01 99.1687 129.151 99.0802C129.292 98.9918 129.456 98.9457 129.622 98.9474C129.789 98.9492 129.951 98.9986 130.09 99.09C130.369 99.3112 130.585 99.6006 130.718 99.93C130.851 100.259 130.897 100.618 130.85 100.97C130.831 101.255 130.706 101.522 130.5 101.72C130.554 105.403 130.855 109.078 131.4 112.72C131.51 113.52 131.64 114.3 131.78 115.09C131.85 114.9 131.9 114.71 131.96 114.52C132.44 113.02 132.82 111.52 133.21 109.92C133.589 108.346 134.053 106.794 134.6 105.27C135.12 103.89 135.77 102.15 137.09 101.8C138.41 101.45 139.65 102.8 140.68 103.58C141.287 104.094 141.96 104.524 142.68 104.86C142.906 104.971 143.154 105.029 143.405 105.029C143.657 105.029 143.905 104.971 144.13 104.86C145.094 104.14 145.818 103.147 146.21 102.01C146.77 100.7 148.22 101.92 147.67 103.13Z"/>
<path d="M158 100.09C157.492 103.021 156.246 105.774 154.38 108.09C153.671 108.973 152.645 109.543 151.52 109.68C150.838 109.684 150.169 109.492 149.593 109.127C149.017 108.762 148.558 108.239 148.27 107.62C146.499 104.445 145.778 100.79 146.21 97.18C146.41 95.62 146.98 93.83 148.38 93.54C149.78 93.25 150.91 94.54 151.38 96C151.87 97.4945 151.766 99.1199 151.09 100.54C150.42 101.78 148.84 102.3 147.97 101.11C148.04 101.62 148.14 102.11 148.25 102.63C148.67 104.41 149.62 107.63 151.46 107.51C152.6 107.41 153.51 106.24 154.17 105.18C155.23 103.399 155.968 101.446 156.35 99.41C156.59 98 158.25 98.72 158 100.09ZM147.83 99.37V99.31C147.908 99.2177 148.006 99.1451 148.117 99.0981C148.228 99.0512 148.348 99.0313 148.468 99.0401C148.588 99.0489 148.705 99.0861 148.808 99.1487C148.911 99.2113 148.997 99.2974 149.06 99.4C149.26 99.75 149.51 99.5 149.68 99.12C149.868 98.6333 149.937 98.1087 149.88 97.59C149.88 96.92 149.25 95.24 148.49 95.74C147.73 96.24 147.82 97.93 147.79 98.74C147.79 98.93 147.8 99.15 147.8 99.37H147.83Z"/>
<path d="M169.75 97.24C168.034 99.0019 166.421 100.862 164.92 102.81C165.193 103.485 165.368 104.196 165.44 104.92C165.613 106.838 165.321 108.769 164.59 110.55C164.05 111.88 162.73 114.55 161.27 113.87C159.81 113.19 160.18 109.8 160.49 108.28C160.839 106.523 161.47 104.835 162.36 103.28L162.72 102.7C161.983 102.092 161.107 101.676 160.17 101.49C158.892 101.219 157.736 100.538 156.88 99.55C156.367 98.7506 156.034 97.8489 155.904 96.9077C155.775 95.9665 155.852 95.0084 156.13 94.1C156.596 92.3405 157.525 90.7381 158.82 89.46C159.11 89.1446 159.496 88.9349 159.918 88.8642C160.34 88.7936 160.774 88.866 161.15 89.07C161.519 89.3009 161.818 89.6275 162.015 90.015C162.212 90.4024 162.3 90.8362 162.27 91.27C162.27 92.69 160.52 92.54 160.53 91.13C160.53 90.91 160.07 91.07 159.97 91.13C159.592 91.4289 159.276 91.7993 159.04 92.22C158.429 93.066 157.981 94.0191 157.72 95.03C157.452 96.0118 157.578 97.0593 158.07 97.95C158.448 98.466 158.98 98.8479 159.59 99.04C160.816 99.3687 162 99.835 163.12 100.43C163.381 100.612 163.622 100.82 163.84 101.05C165.3 99.05 166.97 97.36 168.58 95.58C169.42 94.67 170.59 96.31 169.75 97.24ZM163.67 104.78C163.5 105.1 163.33 105.41 163.17 105.78C162.39 107.394 161.971 109.158 161.94 110.95C161.94 111.02 161.94 111.19 161.99 111.36C162.15 111.14 162.36 110.92 162.48 110.71C162.919 109.99 163.256 109.213 163.48 108.4C163.8 107.221 163.865 105.986 163.67 104.78Z"/>
<path d="M181.81 93.89C180.103 95.6548 178.497 97.5144 177 99.46C177.268 100.139 177.44 100.853 177.51 101.58C177.686 103.495 177.395 105.423 176.66 107.2C176.13 108.53 174.8 111.2 173.34 110.52C171.88 109.84 172.25 106.45 172.56 104.93C172.909 103.172 173.545 101.483 174.44 99.93C174.55 99.73 174.67 99.54 174.79 99.35C174.059 98.7325 173.181 98.3155 172.24 98.14C170.955 97.8572 169.8 97.1533 168.96 96.14C168.445 95.3431 168.11 94.4435 167.979 93.5039C167.848 92.5644 167.923 91.6074 168.2 90.7C168.663 88.9365 169.592 87.3303 170.89 86.05C171.181 85.7376 171.568 85.53 171.989 85.4595C172.41 85.3889 172.843 85.4594 173.22 85.66C173.608 85.9048 173.918 86.2547 174.114 86.669C174.311 87.0833 174.386 87.5449 174.33 88C174.33 89.41 172.58 89.27 172.59 87.86C172.59 87.63 172.13 87.79 172.03 87.86C171.659 88.1664 171.344 88.5353 171.1 88.95C170.498 89.8 170.054 90.752 169.79 91.76C169.653 92.2457 169.613 92.7538 169.673 93.255C169.733 93.7562 169.892 94.2406 170.14 94.68C170.515 95.1943 171.044 95.576 171.65 95.77C172.876 96.1004 174.061 96.5702 175.18 97.17C175.447 97.3433 175.689 97.5518 175.9 97.79C177.37 95.79 179.04 94.09 180.64 92.32C181.48 91.33 182.65 93 181.81 93.89ZM175.73 101.44C175.56 101.75 175.39 102.07 175.24 102.44C174.462 104.037 174.038 105.784 174 107.56C174 107.63 174 107.8 174.05 107.98C174.21 107.75 174.43 107.53 174.55 107.32C174.969 106.6 175.289 105.826 175.5 105.02C175.828 103.856 175.906 102.636 175.73 101.44Z"/>
</mask>
<path d="M85.8804 105.9C83.1718 105.819 80.4686 106.188 77.8804 106.99L76.6904 107.35C77.3104 112.98 77.9904 118.6 78.8904 124.17C79.1704 125.92 79.4704 127.66 79.8304 129.39C79.9904 130.18 80.1604 130.96 80.3504 131.74C80.4904 132.35 80.6904 133.14 80.8304 133.59C81.1236 134.651 81.5153 135.682 82.0004 136.67C82.0004 136.67 82.1004 136.86 82.1104 136.89C82.1204 136.92 82.1804 137.01 82.2204 137.06C82.3088 137.214 82.4091 137.361 82.5204 137.5C82.5704 137.57 82.7904 137.8 82.5704 137.58C82.6161 137.638 82.67 137.688 82.7304 137.73L82.8904 137.86C83.8904 138.41 83.3704 140.49 82.3404 139.94C80.5204 138.94 79.7304 136.07 79.1304 133.94C78.2694 130.649 77.6016 127.309 77.1304 123.94C76.4704 119.73 75.9404 115.49 75.4404 111.24C75.3104 110.13 75.1804 109.01 75.0604 107.89C69.4755 109.548 64.1701 112.032 59.3204 115.26C59.7104 118.4 59.9304 119.78 60.4404 122.9C60.6321 124.592 60.9667 126.265 61.4404 127.9C61.4404 128.01 61.5404 128.24 61.6204 128.49C61.7004 128.74 61.7504 128.92 61.8304 129.13C61.9585 129.529 62.1122 129.92 62.2904 130.3L62.4204 130.58C62.4845 130.697 62.5546 130.81 62.6304 130.92L62.7604 131.09L62.9904 131.26C63.1889 131.453 63.321 131.705 63.3677 131.978C63.4145 132.251 63.3734 132.532 63.2504 132.78C63.2035 132.891 63.1317 132.991 63.0405 133.07C62.9492 133.149 62.841 133.207 62.7241 133.238C62.6072 133.269 62.4848 133.272 62.3662 133.248C62.2477 133.224 62.1362 133.174 62.0404 133.1C60.6804 132.24 60.0404 129.68 59.6504 128.02C59.1746 126.293 58.8402 124.531 58.6504 122.75C58.2204 120.03 58.0604 119.05 57.7104 116.32C56.5704 117.08 55.4404 117.87 54.3204 118.69C53.3204 119.4 52.5604 117.43 53.5204 116.69C54.8104 115.76 56.1104 114.85 57.4304 113.99C56.5804 107.12 56.3704 104.63 55.4304 97.77C55.2504 96.38 56.9504 95.94 57.1304 97.33C57.6004 100.9 57.5204 100.08 57.9304 103.67C58.2804 106.76 58.6304 109.85 59.0004 112.94L60.8904 111.78C65.3404 109.13 66.8904 108.67 71.6004 106.84C72.6604 106.44 73.7204 106.04 74.7904 105.67C74.0904 99.2 73.4504 92.67 72.6304 86.28C72.4604 84.88 74.1604 84.43 74.3304 85.83C74.8804 90.15 75.3304 94.49 75.8004 98.83C76.0204 100.93 76.2437 103.03 76.4704 105.13C79.5383 104.098 82.7648 103.617 86.0004 103.71C87.1104 103.76 87.0004 106 85.8804 105.9Z" fill="white"/>
<path d="M100.32 115.55C99.8348 117.561 99.1654 119.522 98.3203 121.41C97.1603 124.06 94.6703 128.99 92.0203 125.57C91.335 124.546 90.8466 123.403 90.5803 122.2C90.1603 120.75 89.7603 119.29 89.3903 117.82L89.0603 116.46C88.9803 117.08 88.8903 117.7 88.7703 118.32C88.3203 120.7 87.4703 124.01 85.4803 124.99C83.2603 126.08 81.7503 123.3 81.3103 120.92C80.7762 118.321 81.2863 115.616 82.7303 113.39C84.0003 111.68 86.1403 111.22 87.6103 112.72C87.6103 111.43 87.6103 110.14 87.6103 108.88C87.5843 108.76 87.5841 108.635 87.6097 108.515C87.6353 108.395 87.6862 108.281 87.759 108.182C87.8317 108.082 87.9247 108 88.0317 107.939C88.1388 107.878 88.2575 107.841 88.3801 107.83C88.5026 107.818 88.6262 107.833 88.7426 107.873C88.859 107.913 88.9656 107.977 89.0555 108.061C89.1453 108.145 89.2162 108.248 89.2636 108.361C89.311 108.475 89.3337 108.597 89.3303 108.72C89.8203 111.65 90.4103 114.53 91.1203 117.38C91.4303 118.62 91.7603 119.85 92.1203 121.06C92.3109 122.124 92.7011 123.142 93.2703 124.06C93.7503 124.65 94.4503 124.59 95.2703 123.35C96.8977 120.747 98.0616 117.881 98.7103 114.88C99.0003 113.49 100.64 114.2 100.32 115.55ZM87.5003 114.81C87.3418 114.876 87.1649 114.883 87.0018 114.829C86.8386 114.776 86.6998 114.666 86.6103 114.52C85.4403 113 83.8203 114.78 83.3103 116.2C82.6643 118.063 82.7069 120.096 83.4303 121.93C83.7003 122.55 84.1703 123.23 84.7903 122.93C85.4103 122.63 85.8903 121.7 86.1803 120.93C86.914 118.965 87.3586 116.903 87.5003 114.81Z" fill="white"/>
<path d="M109.63 114.22C109.38 115.96 108.63 117.84 107.06 118.07C105.49 118.3 104.72 116.8 104.13 115.34C103.61 114.08 105.13 113.08 105.67 114.34C105.86 114.82 106.11 115.57 106.53 115.82C106.95 116.07 107.46 115.51 107.65 115.02C108.138 113.421 108.204 111.722 107.84 110.09C107.63 108.96 107.21 107.33 106.33 106.73C105.45 106.13 104.72 108 104.42 108.81C103.475 111.782 102.996 114.882 103 118C102.929 124.458 103.634 130.901 105.1 137.19C105.161 137.451 105.127 137.725 105.004 137.963C104.881 138.201 104.678 138.388 104.43 138.49C103.93 138.62 103.54 138.19 103.43 137.63C101.008 128.265 99.3362 118.721 98.4302 109.09C98.3032 108.873 98.2473 108.621 98.2701 108.37V107.72C98.3401 106.52 99.8702 106.31 99.9902 107.57C100.31 111.083 100.72 114.58 101.22 118.06C101.28 116.078 101.461 114.101 101.76 112.14C102.18 109.42 103.53 103.14 106.7 104.52C108 105.1 108.7 106.83 109.19 108.36C109.757 110.259 109.907 112.258 109.63 114.22Z" fill="white"/>
<path d="M122.6 110.64C122.35 112.38 121.6 114.26 120.03 114.49C118.46 114.72 117.68 113.22 117.09 111.76C116.58 110.5 118.09 109.5 118.64 110.76C118.789 111.32 119.082 111.83 119.49 112.24C119.97 112.54 120.43 111.93 120.62 111.44C121.108 109.841 121.174 108.142 120.81 106.51C120.6 105.38 120.18 103.75 119.3 103.15C118.42 102.55 117.68 104.43 117.39 105.23C116.456 108.217 115.987 111.33 116 114.46C115.939 120.917 116.644 127.359 118.1 133.65C118.161 133.908 118.128 134.18 118.007 134.416C117.886 134.652 117.685 134.838 117.44 134.94C116.94 135.07 116.55 134.65 116.44 134.09C114.018 124.725 112.347 115.181 111.44 105.55C111.313 105.333 111.258 105.081 111.28 104.83V104.18C111.35 102.98 112.88 102.77 113 104.03C113.32 107.543 113.73 111.04 114.23 114.52C114.285 112.537 114.465 110.56 114.77 108.6C115.19 105.88 116.54 99.6 119.7 100.98C121.01 101.55 121.76 103.29 122.2 104.82C122.743 106.71 122.88 108.694 122.6 110.64Z" fill="white"/>
<path d="M123.37 99.18C123.166 99.0019 123.032 98.7576 122.99 98.49C122.995 98.4669 122.995 98.4432 122.99 98.42C122.949 98.1408 122.99 97.8555 123.11 97.6C123.165 97.4879 123.241 97.3882 123.336 97.3073C123.431 97.2264 123.541 97.166 123.66 97.13C123.77 97.0903 123.891 97.0903 124 97.13C124.116 97.1486 124.224 97.2008 124.31 97.28C124.516 97.4606 124.651 97.7089 124.69 97.98V98.05C124.737 98.3292 124.695 98.616 124.57 98.87C124.516 98.9821 124.439 99.0818 124.345 99.1627C124.25 99.2436 124.14 99.304 124.02 99.34C123.911 99.3845 123.789 99.3845 123.68 99.34C123.561 99.3256 123.451 99.2688 123.37 99.18ZM128 118.55C127.526 118.315 127.105 117.987 126.761 117.585C126.417 117.182 126.159 116.715 126 116.21C125.469 114.899 125.067 113.539 124.8 112.15C124.24 109.62 123.93 107.04 123.52 104.47C123.516 104.444 123.516 104.416 123.52 104.39C123.52 104.3 123.52 104.21 123.52 104.12C123.31 102.73 124.99 102.29 125.22 103.68C125.63 106.13 125.92 108.61 126.42 111.04C126.649 112.316 126.983 113.57 127.42 114.79C127.569 115.213 127.763 115.619 128 116C128.24 116.35 128.29 116.4 128.56 116.48C129.65 116.82 129.1 118.9 128 118.55Z" fill="white"/>
<path d="M147.67 103.13C146.52 105.65 144.67 107.85 142.22 106.9C141.355 106.518 140.547 106.017 139.82 105.41C139.23 104.881 138.59 104.408 137.91 104C137.26 103.68 136.91 104.3 136.65 105C135.21 108.11 134.65 111.77 133.65 115.09C133.24 116.41 132.34 118.87 130.89 117.63C130.25 117.08 130.16 115.96 130.01 115.08C129.86 114.2 129.7 113.24 129.57 112.31C129.011 108.207 128.737 104.071 128.75 99.93C128.729 99.7649 128.755 99.597 128.826 99.4464C128.897 99.2958 129.01 99.1687 129.151 99.0802C129.292 98.9918 129.456 98.9457 129.622 98.9474C129.789 98.9492 129.951 98.9986 130.09 99.09C130.369 99.3112 130.585 99.6006 130.718 99.93C130.851 100.259 130.897 100.618 130.85 100.97C130.831 101.255 130.706 101.522 130.5 101.72C130.554 105.403 130.855 109.078 131.4 112.72C131.51 113.52 131.64 114.3 131.78 115.09C131.85 114.9 131.9 114.71 131.96 114.52C132.44 113.02 132.82 111.52 133.21 109.92C133.589 108.346 134.053 106.794 134.6 105.27C135.12 103.89 135.77 102.15 137.09 101.8C138.41 101.45 139.65 102.8 140.68 103.58C141.287 104.094 141.96 104.524 142.68 104.86C142.906 104.971 143.154 105.029 143.405 105.029C143.657 105.029 143.905 104.971 144.13 104.86C145.094 104.14 145.818 103.147 146.21 102.01C146.77 100.7 148.22 101.92 147.67 103.13Z" fill="white"/>
<path d="M158 100.09C157.492 103.021 156.246 105.774 154.38 108.09C153.671 108.973 152.645 109.543 151.52 109.68C150.838 109.684 150.169 109.492 149.593 109.127C149.017 108.762 148.558 108.239 148.27 107.62C146.499 104.445 145.778 100.79 146.21 97.18C146.41 95.62 146.98 93.83 148.38 93.54C149.78 93.25 150.91 94.54 151.38 96C151.87 97.4945 151.766 99.1199 151.09 100.54C150.42 101.78 148.84 102.3 147.97 101.11C148.04 101.62 148.14 102.11 148.25 102.63C148.67 104.41 149.62 107.63 151.46 107.51C152.6 107.41 153.51 106.24 154.17 105.18C155.23 103.399 155.968 101.446 156.35 99.41C156.59 98 158.25 98.72 158 100.09ZM147.83 99.37V99.31C147.908 99.2177 148.006 99.1451 148.117 99.0981C148.228 99.0512 148.348 99.0313 148.468 99.0401C148.588 99.0489 148.705 99.0861 148.808 99.1487C148.911 99.2113 148.997 99.2974 149.06 99.4C149.26 99.75 149.51 99.5 149.68 99.12C149.868 98.6333 149.937 98.1087 149.88 97.59C149.88 96.92 149.25 95.24 148.49 95.74C147.73 96.24 147.82 97.93 147.79 98.74C147.79 98.93 147.8 99.15 147.8 99.37H147.83Z" fill="white"/>
<path d="M169.75 97.24C168.034 99.0019 166.421 100.862 164.92 102.81C165.193 103.485 165.368 104.196 165.44 104.92C165.613 106.838 165.321 108.769 164.59 110.55C164.05 111.88 162.73 114.55 161.27 113.87C159.81 113.19 160.18 109.8 160.49 108.28C160.839 106.523 161.47 104.835 162.36 103.28L162.72 102.7C161.983 102.092 161.107 101.676 160.17 101.49C158.892 101.219 157.736 100.538 156.88 99.55C156.367 98.7506 156.034 97.8489 155.904 96.9077C155.775 95.9665 155.852 95.0084 156.13 94.1C156.596 92.3405 157.525 90.7381 158.82 89.46C159.11 89.1446 159.496 88.9349 159.918 88.8642C160.34 88.7936 160.774 88.866 161.15 89.07C161.519 89.3009 161.818 89.6275 162.015 90.015C162.212 90.4024 162.3 90.8362 162.27 91.27C162.27 92.69 160.52 92.54 160.53 91.13C160.53 90.91 160.07 91.07 159.97 91.13C159.592 91.4289 159.276 91.7993 159.04 92.22C158.429 93.066 157.981 94.0191 157.72 95.03C157.452 96.0118 157.578 97.0593 158.07 97.95C158.448 98.466 158.98 98.8479 159.59 99.04C160.816 99.3687 162 99.835 163.12 100.43C163.381 100.612 163.622 100.82 163.84 101.05C165.3 99.05 166.97 97.36 168.58 95.58C169.42 94.67 170.59 96.31 169.75 97.24ZM163.67 104.78C163.5 105.1 163.33 105.41 163.17 105.78C162.39 107.394 161.971 109.158 161.94 110.95C161.94 111.02 161.94 111.19 161.99 111.36C162.15 111.14 162.36 110.92 162.48 110.71C162.919 109.99 163.256 109.213 163.48 108.4C163.8 107.221 163.865 105.986 163.67 104.78Z" fill="white"/>
<path d="M181.81 93.89C180.103 95.6548 178.497 97.5144 177 99.46C177.268 100.139 177.44 100.853 177.51 101.58C177.686 103.495 177.395 105.423 176.66 107.2C176.13 108.53 174.8 111.2 173.34 110.52C171.88 109.84 172.25 106.45 172.56 104.93C172.909 103.172 173.545 101.483 174.44 99.93C174.55 99.73 174.67 99.54 174.79 99.35C174.059 98.7325 173.181 98.3155 172.24 98.14C170.955 97.8572 169.8 97.1533 168.96 96.14C168.445 95.3431 168.11 94.4435 167.979 93.5039C167.848 92.5644 167.923 91.6074 168.2 90.7C168.663 88.9365 169.592 87.3303 170.89 86.05C171.181 85.7376 171.568 85.53 171.989 85.4595C172.41 85.3889 172.843 85.4594 173.22 85.66C173.608 85.9048 173.918 86.2547 174.114 86.669C174.311 87.0833 174.386 87.5449 174.33 88C174.33 89.41 172.58 89.27 172.59 87.86C172.59 87.63 172.13 87.79 172.03 87.86C171.659 88.1664 171.344 88.5353 171.1 88.95C170.498 89.8 170.054 90.752 169.79 91.76C169.653 92.2457 169.613 92.7538 169.673 93.255C169.733 93.7562 169.892 94.2406 170.14 94.68C170.515 95.1943 171.044 95.576 171.65 95.77C172.876 96.1004 174.061 96.5702 175.18 97.17C175.447 97.3433 175.689 97.5518 175.9 97.79C177.37 95.79 179.04 94.09 180.64 92.32C181.48 91.33 182.65 93 181.81 93.89ZM175.73 101.44C175.56 101.75 175.39 102.07 175.24 102.44C174.462 104.037 174.038 105.784 174 107.56C174 107.63 174 107.8 174.05 107.98C174.21 107.75 174.43 107.53 174.55 107.32C174.969 106.6 175.289 105.826 175.5 105.02C175.828 103.856 175.906 102.636 175.73 101.44Z" fill="white"/>
<path d="M85.8804 105.9C83.1718 105.819 80.4686 106.188 77.8804 106.99L76.6904 107.35C77.3104 112.98 77.9904 118.6 78.8904 124.17C79.1704 125.92 79.4704 127.66 79.8304 129.39C79.9904 130.18 80.1604 130.96 80.3504 131.74C80.4904 132.35 80.6904 133.14 80.8304 133.59C81.1236 134.651 81.5153 135.682 82.0004 136.67C82.0004 136.67 82.1004 136.86 82.1104 136.89C82.1204 136.92 82.1804 137.01 82.2204 137.06C82.3088 137.214 82.4091 137.361 82.5204 137.5C82.5704 137.57 82.7904 137.8 82.5704 137.58C82.6161 137.638 82.67 137.688 82.7304 137.73L82.8904 137.86C83.8904 138.41 83.3704 140.49 82.3404 139.94C80.5204 138.94 79.7304 136.07 79.1304 133.94C78.2694 130.649 77.6016 127.309 77.1304 123.94C76.4704 119.73 75.9404 115.49 75.4404 111.24C75.3104 110.13 75.1804 109.01 75.0604 107.89C69.4755 109.548 64.1701 112.032 59.3204 115.26C59.7104 118.4 59.9304 119.78 60.4404 122.9C60.6321 124.592 60.9667 126.265 61.4404 127.9C61.4404 128.01 61.5404 128.24 61.6204 128.49C61.7004 128.74 61.7504 128.92 61.8304 129.13C61.9585 129.529 62.1122 129.92 62.2904 130.3L62.4204 130.58C62.4845 130.697 62.5546 130.81 62.6304 130.92L62.7604 131.09L62.9904 131.26C63.1889 131.453 63.321 131.705 63.3677 131.978C63.4145 132.251 63.3734 132.532 63.2504 132.78C63.2035 132.891 63.1317 132.991 63.0405 133.07C62.9492 133.149 62.841 133.207 62.7241 133.238C62.6072 133.269 62.4848 133.272 62.3662 133.248C62.2477 133.224 62.1362 133.174 62.0404 133.1C60.6804 132.24 60.0404 129.68 59.6504 128.02C59.1746 126.293 58.8402 124.531 58.6504 122.75C58.2204 120.03 58.0604 119.05 57.7104 116.32C56.5704 117.08 55.4404 117.87 54.3204 118.69C53.3204 119.4 52.5604 117.43 53.5204 116.69C54.8104 115.76 56.1104 114.85 57.4304 113.99C56.5804 107.12 56.3704 104.63 55.4304 97.77C55.2504 96.38 56.9504 95.94 57.1304 97.33C57.6004 100.9 57.5204 100.08 57.9304 103.67C58.2804 106.76 58.6304 109.85 59.0004 112.94L60.8904 111.78C65.3404 109.13 66.8904 108.67 71.6004 106.84C72.6604 106.44 73.7204 106.04 74.7904 105.67C74.0904 99.2 73.4504 92.67 72.6304 86.28C72.4604 84.88 74.1604 84.43 74.3304 85.83C74.8804 90.15 75.3304 94.49 75.8004 98.83C76.0204 100.93 76.2437 103.03 76.4704 105.13C79.5383 104.098 82.7648 103.617 86.0004 103.71C87.1104 103.76 87.0004 106 85.8804 105.9Z" stroke="#DA71A1" stroke-width="2" mask="url(#path-6-outside-1)"/>
<path d="M100.32 115.55C99.8348 117.561 99.1654 119.522 98.3203 121.41C97.1603 124.06 94.6703 128.99 92.0203 125.57C91.335 124.546 90.8466 123.403 90.5803 122.2C90.1603 120.75 89.7603 119.29 89.3903 117.82L89.0603 116.46C88.9803 117.08 88.8903 117.7 88.7703 118.32C88.3203 120.7 87.4703 124.01 85.4803 124.99C83.2603 126.08 81.7503 123.3 81.3103 120.92C80.7762 118.321 81.2863 115.616 82.7303 113.39C84.0003 111.68 86.1403 111.22 87.6103 112.72C87.6103 111.43 87.6103 110.14 87.6103 108.88C87.5843 108.76 87.5841 108.635 87.6097 108.515C87.6353 108.395 87.6862 108.281 87.759 108.182C87.8317 108.082 87.9247 108 88.0317 107.939C88.1388 107.878 88.2575 107.841 88.3801 107.83C88.5026 107.818 88.6262 107.833 88.7426 107.873C88.859 107.913 88.9656 107.977 89.0555 108.061C89.1453 108.145 89.2162 108.248 89.2636 108.361C89.311 108.475 89.3337 108.597 89.3303 108.72C89.8203 111.65 90.4103 114.53 91.1203 117.38C91.4303 118.62 91.7603 119.85 92.1203 121.06C92.3109 122.124 92.7011 123.142 93.2703 124.06C93.7503 124.65 94.4503 124.59 95.2703 123.35C96.8977 120.747 98.0616 117.881 98.7103 114.88C99.0003 113.49 100.64 114.2 100.32 115.55ZM87.5003 114.81C87.3418 114.876 87.1649 114.883 87.0018 114.829C86.8386 114.776 86.6998 114.666 86.6103 114.52C85.4403 113 83.8203 114.78 83.3103 116.2C82.6643 118.063 82.7069 120.096 83.4303 121.93C83.7003 122.55 84.1703 123.23 84.7903 122.93C85.4103 122.63 85.8903 121.7 86.1803 120.93C86.914 118.965 87.3586 116.903 87.5003 114.81Z" stroke="#DA71A1" stroke-width="2" mask="url(#path-6-outside-1)"/>
<path d="M109.63 114.22C109.38 115.96 108.63 117.84 107.06 118.07C105.49 118.3 104.72 116.8 104.13 115.34C103.61 114.08 105.13 113.08 105.67 114.34C105.86 114.82 106.11 115.57 106.53 115.82C106.95 116.07 107.46 115.51 107.65 115.02C108.138 113.421 108.204 111.722 107.84 110.09C107.63 108.96 107.21 107.33 106.33 106.73C105.45 106.13 104.72 108 104.42 108.81C103.475 111.782 102.996 114.882 103 118C102.929 124.458 103.634 130.901 105.1 137.19C105.161 137.451 105.127 137.725 105.004 137.963C104.881 138.201 104.678 138.388 104.43 138.49C103.93 138.62 103.54 138.19 103.43 137.63C101.008 128.265 99.3362 118.721 98.4302 109.09C98.3032 108.873 98.2473 108.621 98.2701 108.37V107.72C98.3401 106.52 99.8702 106.31 99.9902 107.57C100.31 111.083 100.72 114.58 101.22 118.06C101.28 116.078 101.461 114.101 101.76 112.14C102.18 109.42 103.53 103.14 106.7 104.52C108 105.1 108.7 106.83 109.19 108.36C109.757 110.259 109.907 112.258 109.63 114.22Z" stroke="#DA71A1" stroke-width="2" mask="url(#path-6-outside-1)"/>
<path d="M122.6 110.64C122.35 112.38 121.6 114.26 120.03 114.49C118.46 114.72 117.68 113.22 117.09 111.76C116.58 110.5 118.09 109.5 118.64 110.76C118.789 111.32 119.082 111.83 119.49 112.24C119.97 112.54 120.43 111.93 120.62 111.44C121.108 109.841 121.174 108.142 120.81 106.51C120.6 105.38 120.18 103.75 119.3 103.15C118.42 102.55 117.68 104.43 117.39 105.23C116.456 108.217 115.987 111.33 116 114.46C115.939 120.917 116.644 127.359 118.1 133.65C118.161 133.908 118.128 134.18 118.007 134.416C117.886 134.652 117.685 134.838 117.44 134.94C116.94 135.07 116.55 134.65 116.44 134.09C114.018 124.725 112.347 115.181 111.44 105.55C111.313 105.333 111.258 105.081 111.28 104.83V104.18C111.35 102.98 112.88 102.77 113 104.03C113.32 107.543 113.73 111.04 114.23 114.52C114.285 112.537 114.465 110.56 114.77 108.6C115.19 105.88 116.54 99.6 119.7 100.98C121.01 101.55 121.76 103.29 122.2 104.82C122.743 106.71 122.88 108.694 122.6 110.64Z" stroke="#DA71A1" stroke-width="2" mask="url(#path-6-outside-1)"/>
<path d="M123.37 99.18C123.166 99.0019 123.032 98.7576 122.99 98.49C122.995 98.4669 122.995 98.4432 122.99 98.42C122.949 98.1408 122.99 97.8555 123.11 97.6C123.165 97.4879 123.241 97.3882 123.336 97.3073C123.431 97.2264 123.541 97.166 123.66 97.13C123.77 97.0903 123.891 97.0903 124 97.13C124.116 97.1486 124.224 97.2008 124.31 97.28C124.516 97.4606 124.651 97.7089 124.69 97.98V98.05C124.737 98.3292 124.695 98.616 124.57 98.87C124.516 98.9821 124.439 99.0818 124.345 99.1627C124.25 99.2436 124.14 99.304 124.02 99.34C123.911 99.3845 123.789 99.3845 123.68 99.34C123.561 99.3256 123.451 99.2688 123.37 99.18ZM128 118.55C127.526 118.315 127.105 117.987 126.761 117.585C126.417 117.182 126.159 116.715 126 116.21C125.469 114.899 125.067 113.539 124.8 112.15C124.24 109.62 123.93 107.04 123.52 104.47C123.516 104.444 123.516 104.416 123.52 104.39C123.52 104.3 123.52 104.21 123.52 104.12C123.31 102.73 124.99 102.29 125.22 103.68C125.63 106.13 125.92 108.61 126.42 111.04C126.649 112.316 126.983 113.57 127.42 114.79C127.569 115.213 127.763 115.619 128 116C128.24 116.35 128.29 116.4 128.56 116.48C129.65 116.82 129.1 118.9 128 118.55Z" stroke="#DA71A1" stroke-width="2" mask="url(#path-6-outside-1)"/>
<path d="M147.67 103.13C146.52 105.65 144.67 107.85 142.22 106.9C141.355 106.518 140.547 106.017 139.82 105.41C139.23 104.881 138.59 104.408 137.91 104C137.26 103.68 136.91 104.3 136.65 105C135.21 108.11 134.65 111.77 133.65 115.09C133.24 116.41 132.34 118.87 130.89 117.63C130.25 117.08 130.16 115.96 130.01 115.08C129.86 114.2 129.7 113.24 129.57 112.31C129.011 108.207 128.737 104.071 128.75 99.93C128.729 99.7649 128.755 99.597 128.826 99.4464C128.897 99.2958 129.01 99.1687 129.151 99.0802C129.292 98.9918 129.456 98.9457 129.622 98.9474C129.789 98.9492 129.951 98.9986 130.09 99.09C130.369 99.3112 130.585 99.6006 130.718 99.93C130.851 100.259 130.897 100.618 130.85 100.97C130.831 101.255 130.706 101.522 130.5 101.72C130.554 105.403 130.855 109.078 131.4 112.72C131.51 113.52 131.64 114.3 131.78 115.09C131.85 114.9 131.9 114.71 131.96 114.52C132.44 113.02 132.82 111.52 133.21 109.92C133.589 108.346 134.053 106.794 134.6 105.27C135.12 103.89 135.77 102.15 137.09 101.8C138.41 101.45 139.65 102.8 140.68 103.58C141.287 104.094 141.96 104.524 142.68 104.86C142.906 104.971 143.154 105.029 143.405 105.029C143.657 105.029 143.905 104.971 144.13 104.86C145.094 104.14 145.818 103.147 146.21 102.01C146.77 100.7 148.22 101.92 147.67 103.13Z" stroke="#DA71A1" stroke-width="2" mask="url(#path-6-outside-1)"/>
<path d="M158 100.09C157.492 103.021 156.246 105.774 154.38 108.09C153.671 108.973 152.645 109.543 151.52 109.68C150.838 109.684 150.169 109.492 149.593 109.127C149.017 108.762 148.558 108.239 148.27 107.62C146.499 104.445 145.778 100.79 146.21 97.18C146.41 95.62 146.98 93.83 148.38 93.54C149.78 93.25 150.91 94.54 151.38 96C151.87 97.4945 151.766 99.1199 151.09 100.54C150.42 101.78 148.84 102.3 147.97 101.11C148.04 101.62 148.14 102.11 148.25 102.63C148.67 104.41 149.62 107.63 151.46 107.51C152.6 107.41 153.51 106.24 154.17 105.18C155.23 103.399 155.968 101.446 156.35 99.41C156.59 98 158.25 98.72 158 100.09ZM147.83 99.37V99.31C147.908 99.2177 148.006 99.1451 148.117 99.0981C148.228 99.0512 148.348 99.0313 148.468 99.0401C148.588 99.0489 148.705 99.0861 148.808 99.1487C148.911 99.2113 148.997 99.2974 149.06 99.4C149.26 99.75 149.51 99.5 149.68 99.12C149.868 98.6333 149.937 98.1087 149.88 97.59C149.88 96.92 149.25 95.24 148.49 95.74C147.73 96.24 147.82 97.93 147.79 98.74C147.79 98.93 147.8 99.15 147.8 99.37H147.83Z" stroke="#DA71A1" stroke-width="2" mask="url(#path-6-outside-1)"/>
<path d="M169.75 97.24C168.034 99.0019 166.421 100.862 164.92 102.81C165.193 103.485 165.368 104.196 165.44 104.92C165.613 106.838 165.321 108.769 164.59 110.55C164.05 111.88 162.73 114.55 161.27 113.87C159.81 113.19 160.18 109.8 160.49 108.28C160.839 106.523 161.47 104.835 162.36 103.28L162.72 102.7C161.983 102.092 161.107 101.676 160.17 101.49C158.892 101.219 157.736 100.538 156.88 99.55C156.367 98.7506 156.034 97.8489 155.904 96.9077C155.775 95.9665 155.852 95.0084 156.13 94.1C156.596 92.3405 157.525 90.7381 158.82 89.46C159.11 89.1446 159.496 88.9349 159.918 88.8642C160.34 88.7936 160.774 88.866 161.15 89.07C161.519 89.3009 161.818 89.6275 162.015 90.015C162.212 90.4024 162.3 90.8362 162.27 91.27C162.27 92.69 160.52 92.54 160.53 91.13C160.53 90.91 160.07 91.07 159.97 91.13C159.592 91.4289 159.276 91.7993 159.04 92.22C158.429 93.066 157.981 94.0191 157.72 95.03C157.452 96.0118 157.578 97.0593 158.07 97.95C158.448 98.466 158.98 98.8479 159.59 99.04C160.816 99.3687 162 99.835 163.12 100.43C163.381 100.612 163.622 100.82 163.84 101.05C165.3 99.05 166.97 97.36 168.58 95.58C169.42 94.67 170.59 96.31 169.75 97.24ZM163.67 104.78C163.5 105.1 163.33 105.41 163.17 105.78C162.39 107.394 161.971 109.158 161.94 110.95C161.94 111.02 161.94 111.19 161.99 111.36C162.15 111.14 162.36 110.92 162.48 110.71C162.919 109.99 163.256 109.213 163.48 108.4C163.8 107.221 163.865 105.986 163.67 104.78Z" stroke="#DA71A1" stroke-width="2" mask="url(#path-6-outside-1)"/>
<path d="M181.81 93.89C180.103 95.6548 178.497 97.5144 177 99.46C177.268 100.139 177.44 100.853 177.51 101.58C177.686 103.495 177.395 105.423 176.66 107.2C176.13 108.53 174.8 111.2 173.34 110.52C171.88 109.84 172.25 106.45 172.56 104.93C172.909 103.172 173.545 101.483 174.44 99.93C174.55 99.73 174.67 99.54 174.79 99.35C174.059 98.7325 173.181 98.3155 172.24 98.14C170.955 97.8572 169.8 97.1533 168.96 96.14C168.445 95.3431 168.11 94.4435 167.979 93.5039C167.848 92.5644 167.923 91.6074 168.2 90.7C168.663 88.9365 169.592 87.3303 170.89 86.05C171.181 85.7376 171.568 85.53 171.989 85.4595C172.41 85.3889 172.843 85.4594 173.22 85.66C173.608 85.9048 173.918 86.2547 174.114 86.669C174.311 87.0833 174.386 87.5449 174.33 88C174.33 89.41 172.58 89.27 172.59 87.86C172.59 87.63 172.13 87.79 172.03 87.86C171.659 88.1664 171.344 88.5353 171.1 88.95C170.498 89.8 170.054 90.752 169.79 91.76C169.653 92.2457 169.613 92.7538 169.673 93.255C169.733 93.7562 169.892 94.2406 170.14 94.68C170.515 95.1943 171.044 95.576 171.65 95.77C172.876 96.1004 174.061 96.5702 175.18 97.17C175.447 97.3433 175.689 97.5518 175.9 97.79C177.37 95.79 179.04 94.09 180.64 92.32C181.48 91.33 182.65 93 181.81 93.89ZM175.73 101.44C175.56 101.75 175.39 102.07 175.24 102.44C174.462 104.037 174.038 105.784 174 107.56C174 107.63 174 107.8 174.05 107.98C174.21 107.75 174.43 107.53 174.55 107.32C174.969 106.6 175.289 105.826 175.5 105.02C175.828 103.856 175.906 102.636 175.73 101.44Z" stroke="#DA71A1" stroke-width="2" mask="url(#path-6-outside-1)"/>
<path d="M76.14 156.07L77.87 157.69L75.53 160.18C74.35 161.43 73.05 161.56 71.84 160.43C70.63 159.3 70.68 157.99 71.84 156.73L75.66 152.66C76.84 151.4 78.14 151.27 79.35 152.41C80.56 153.55 80.51 154.85 79.35 156.1L78.63 156.87L77.47 155.77L78.26 154.93C78.78 154.37 78.73 153.93 78.34 153.56C77.95 153.19 77.51 153.17 76.98 153.73L73 158C72.47 158.56 72.53 159 72.92 159.36C73.31 159.72 73.75 159.76 74.27 159.2L75.63 157.75L75.07 157.22L76.14 156.07Z" fill="white"/>
<path d="M86.8801 158.49L82.4401 165.49C82.0301 166.14 82.1601 166.56 82.6201 166.84C83.0801 167.12 83.5101 167.08 83.9201 166.43L88.3602 159.43L89.7101 160.28L85.3202 167.2C84.4002 168.65 83.1502 169.02 81.7502 168.13C80.3502 167.24 80.1502 165.95 81.0702 164.5L85.4501 157.59L86.8801 158.49Z" fill="white"/>
<path d="M95.8703 174.81L94.2803 174.18L94.7203 172.26L92.7903 171.51L91.7903 173.22L90.3403 172.65L95.8503 163.26L98.1603 164.16L95.8703 174.81ZM93.5203 170.23L95.0403 170.82L96.2703 165.46L93.5203 170.23Z" fill="white"/>
<path d="M106.39 177.37C106.33 176.926 106.357 176.474 106.47 176.04L106.77 174.38C106.95 173.38 106.68 172.97 105.93 172.83L105.35 172.73L104.58 177L102.91 176.7L104.81 166.12L107.32 166.57C109.05 166.88 109.65 167.81 109.32 169.44L109.17 170.28C109.155 170.714 109.005 171.133 108.742 171.479C108.479 171.824 108.115 172.08 107.7 172.21V172.21C108.46 172.71 108.6 173.55 108.4 174.65L108.1 176.28C108.012 176.716 108.012 177.164 108.1 177.6L106.39 177.37ZM106.21 167.97L105.62 171.22L106.27 171.34C106.89 171.45 107.27 171.24 107.47 170.4L107.66 169.35C107.79 168.6 107.6 168.22 107.01 168.11L106.21 167.97Z" fill="white"/>
<path d="M121 178.17H119.29L118.97 176.22H116.9L116.63 178.22H115.08L116.63 167.43H119.11L121 178.17ZM117 174.82H118.63L117.74 169.39L117 174.82Z" fill="white"/>
<path d="M128.06 169.42L129.66 177.04L128.17 177.35L125.96 166.83L128.03 166.4L131.03 172.34L129.7 166.04L131.17 165.73L133.39 176.25L131.69 176.61L128.06 169.42Z" fill="white"/>
<path d="M136.11 164.19L140.93 162.19L141.52 163.61L139.89 164.29L143.47 172.79L141.91 173.44L138.34 164.95L136.71 165.63L136.11 164.19Z" fill="white"/>
<path d="M149.4 162.54L151.34 161.27L152.18 162.56L150.24 163.83L151.97 166.46L154.41 164.86L155.25 166.15L151.4 168.67L145.5 159.67L149.36 157.14L150.2 158.43L147.76 160.03L149.4 162.54Z" fill="white"/>
<path d="M158 155.83L159.68 154.23L160.74 155.34L159.06 156.94L161.24 159.21L163.35 157.21L164.41 158.32L161.07 161.5L153.65 153.73L156.98 150.54L158.04 151.66L155.93 153.66L158 155.83Z" fill="white"/>
<path d="M65.77 141.39C67.0555 143.796 68.4986 146.114 70.09 148.33" stroke="white" stroke-width="1.5" stroke-linecap="round" stroke-linejoin="round"/>
<path d="M84.3103 62.58C79.8521 65.7645 75.837 69.5275 72.3703 73.77C69.7737 76.9488 67.4961 80.3753 65.5703 84" stroke="white" stroke-width="1.5" stroke-linecap="round" stroke-linejoin="round"/>
<path d="M171.11 78.8C166.545 71.886 160.634 65.9616 153.73 61.38" stroke="white" stroke-width="1.5" stroke-linecap="round" stroke-linejoin="round"/>
<path d="M168.79 149.55C175.771 140.367 180.004 129.392 181 117.9" stroke="white" stroke-width="1.5" stroke-linecap="round" stroke-linejoin="round"/>
</g>
<defs>
<filter id="filter0_d" x="0.922363" y="0.962128" width="233.288" height="233.286" filterUnits="userSpaceOnUse" color-interpolation-filters="sRGB">
<feFlood flood-opacity="0" result="BackgroundImageFix"/>
<feColorMatrix in="SourceAlpha" type="matrix" values="0 0 0 0 0 0 0 0 0 0 0 0 0 0 0 0 0 0 127 0"/>
<feOffset dy="4"/>
<feGaussianBlur stdDeviation="10"/>
<feColorMatrix type="matrix" values="0 0 0 0 0.266667 0 0 0 0 0.333333 0 0 0 0 0.380392 0 0 0 0.47 0"/>
<feBlend mode="normal" in2="BackgroundImageFix" result="effect1_dropShadow"/>
<feBlend mode="normal" in="SourceGraphic" in2="effect1_dropShadow" result="shape"/>
</filter>
<linearGradient id="paint0_linear" x1="117.566" y1="16.9621" x2="117.566" y2="210.248" gradientUnits="userSpaceOnUse">
<stop stop-color="#BE4E76"/>
<stop offset="0.578125" stop-color="#DA71A1"/>
<stop offset="0.770833" stop-color="#DA719C"/>
<stop offset="1" stop-color="#D26791"/>
</linearGradient>
</defs>
</svg>
